# xmcd
#
# Track frame offsets: 
#        150
#        16460
#        34900
#        50001
#        69315
#        104187
#        116545
#        147358
#        162350
#        185640
#        217271
#
# Disc length: 3206 seconds
#
# Revision: 0
# Processed by: cddbd v1.5.2PL0 Copyright (c) Steve Scherf et al.
# Submitted via: ExactAudioCopyFreeDBPlugin 1.0
#
DISCID=ad0c840b
DTITLE=Lise and Gertrud - Liv ä Att Ta sig Ut
DYEAR=1900
DGENRE=
TTITLE0=Rock Me
TTITLE1=Guldkalvvals
TTITLE2=Eleanor Rigby
TTITLE3=Se upp for fan
TTITLE4=Julimorgen i saltbaden
TTITLE5=Splitttrad
TTITLE6=Life On Mars
TTITLE7=Fri i mit Skin
TTITLE8=Gå back
TTITLE9=VI
TTITLE10=Liv tar sig ut
EXTD=
EXTT0=
EXTT1=
EXTT2=
EXTT3=
EXTT4=
EXTT5=
EXTT6=
EXTT7=
EXTT8=
EXTT9=
EXTT10=
PLAYORDER=
